<svg width="36" height="45" viewBox="0 0 36 45" fill="none" xmlns="http://www.w3.org/2000/svg">
<g clip-path="url(#clip0_7_142)">
<path d="M17.8251 31.8874C26.6522 31.8874 33.808 24.7492 33.808 15.9437C33.808 7.13824 26.6522 0 17.8251 0C8.99805 0 1.84229 7.13824 1.84229 15.9437C1.84229 24.7492 8.99805 31.8874 17.8251 31.8874Z" fill="url(#paint0_linear_7_142)"/>
<path fill-rule="evenodd" clip-rule="evenodd" d="M9.08685 15.7698C13.7423 13.7334 16.8542 12.4172 18.3977 11.7715C22.8291 9.93375 23.7502 9.6109 24.3477 9.6109C24.4722 9.6109 24.771 9.63574 24.9701 9.78474C25.1195 9.90891 25.1693 10.0828 25.1942 10.2069C25.2191 10.3311 25.244 10.6043 25.2191 10.8278C24.9701 13.3361 23.9494 19.4702 23.4017 22.2765C23.1776 23.4685 22.7295 23.8659 22.3063 23.9155C21.3852 23.99 20.6632 23.2947 19.767 22.7235C18.3728 21.8046 17.5762 21.2334 16.2069 20.3394C14.6385 19.2963 15.6592 18.7251 16.5555 17.8063C16.7795 17.5579 20.8873 13.8576 20.962 13.5099C20.962 13.4602 20.9869 13.3112 20.8873 13.2367C20.7877 13.1622 20.6632 13.1871 20.5636 13.2119C20.4143 13.2367 18.1737 14.7268 13.817 17.6573C13.1697 18.1043 12.5971 18.303 12.0743 18.303C11.5017 18.303 10.4063 17.9801 9.58476 17.7069C8.58894 17.3841 7.79229 17.2102 7.86698 16.6639C7.94166 16.3659 8.33999 16.0679 9.08685 15.7698Z" fill="white"/>
<path d="M7.0205 38.7996C7.66778 38.7996 8.16569 38.9983 8.51423 39.4205C8.86276 39.8427 9.03703 40.4139 9.03703 41.1589V41.5811H5.95C5.9749 41.9785 6.12427 42.2765 6.34833 42.5C6.57238 42.7235 6.87113 42.8477 7.21966 42.8477C7.71757 42.8477 8.1159 42.649 8.41464 42.2516L8.98724 42.798C8.78807 43.0712 8.53912 43.2947 8.21548 43.4437C7.89184 43.5927 7.5433 43.6672 7.14498 43.6672C6.4728 43.6672 5.9251 43.4437 5.50188 43.0215C5.07866 42.5993 4.8795 42.0281 4.8795 41.3328V41.2086C4.8795 40.7367 4.97908 40.3145 5.15335 39.942C5.32761 39.5695 5.60146 39.2715 5.9251 39.0728C6.24874 38.899 6.62218 38.7996 7.0205 38.7996ZM5.05377 37.2351V38.1291H3.06213V43.5927H1.96674V38.1291H0V37.2351H5.05377ZM7.0205 39.644C6.72176 39.644 6.4977 39.7434 6.32343 39.942C6.14916 40.1407 6.02469 40.4387 5.9749 40.7864H7.99142V40.7119C7.96653 40.3642 7.86694 40.091 7.71757 39.9172C7.5433 39.7185 7.31925 39.644 7.0205 39.644ZM10.8046 43.5927H9.7341V36.8874H10.8046V43.5927ZM13.792 43.692C13.1199 43.692 12.5722 43.4685 12.149 43.0463C11.7257 42.6241 11.5266 42.053 11.5266 41.3576V41.2334C11.5266 40.7616 11.6262 40.3394 11.8004 39.9669C11.9747 39.5943 12.2485 39.2963 12.5722 39.0977C12.8958 38.899 13.2692 38.7996 13.6676 38.7996C14.3149 38.7996 14.8128 38.9983 15.1613 39.4205C15.5098 39.8427 15.6841 40.4139 15.6841 41.1589V41.5811H12.5971C12.622 41.9785 12.7713 42.2765 12.9954 42.5C13.2195 42.7235 13.5182 42.8477 13.8667 42.8477C14.3646 42.8477 14.763 42.649 15.0617 42.2516L15.6343 42.798C15.4351 43.0712 15.1862 43.2947 14.8626 43.4437C14.5389 43.6175 14.1904 43.692 13.792 43.692ZM13.6676 39.644C13.3688 39.644 13.1448 39.7434 12.9705 39.942C12.7962 40.1407 12.6718 40.4387 12.622 40.7864H14.6385V40.7119C14.6136 40.3642 14.514 40.091 14.3646 39.9172C14.1904 39.7185 13.9663 39.644 13.6676 39.644ZM16.2069 41.2086C16.2069 40.4636 16.3812 39.8924 16.7297 39.4453C17.0782 38.9983 17.5264 38.7996 18.099 38.7996C18.6467 38.7996 19.0699 38.9983 19.3686 39.3708L19.4184 38.899H20.3893V43.4934C20.3893 44.1142 20.1902 44.6109 19.8167 44.9586C19.4184 45.3063 18.8956 45.5049 18.2483 45.5049C17.8998 45.5049 17.5513 45.4304 17.2276 45.2814C16.904 45.1324 16.655 44.9586 16.4808 44.7102L16.9787 44.0645C17.3023 44.4619 17.7006 44.6357 18.1985 44.6357C18.5471 44.6357 18.8209 44.5364 19.045 44.3377C19.2441 44.139 19.3437 43.8659 19.3437 43.4934V43.1705C19.045 43.5182 18.6218 43.692 18.1238 43.692C17.5761 43.692 17.128 43.4685 16.7546 43.0215C16.3812 42.5993 16.2069 41.9785 16.2069 41.2086ZM17.2774 41.3079C17.2774 41.7798 17.377 42.1523 17.5761 42.4255C17.7753 42.6986 18.0492 42.8228 18.3728 42.8228C18.796 42.8228 19.1197 42.649 19.3188 42.2765V40.1904C19.1197 39.8427 18.796 39.644 18.3728 39.644C18.0243 39.644 17.7504 39.793 17.5513 40.0662C17.377 40.3394 17.2774 40.7616 17.2774 41.3079ZM23.8498 39.8427C23.7004 39.8179 23.5759 39.8179 23.4266 39.8179C22.9287 39.8179 22.605 40.0165 22.4307 40.389V43.6175H21.3603V38.899H22.381L22.4059 39.4205C22.6548 38.9983 23.0282 38.7996 23.4764 38.7996C23.6257 38.7996 23.7502 38.8245 23.8498 38.8493V39.8427ZM27.0862 43.5927C27.0364 43.4934 26.9866 43.3443 26.9617 43.1457C26.6132 43.4934 26.2149 43.6672 25.7169 43.6672C25.2439 43.6672 24.8456 43.543 24.5469 43.2698C24.2481 42.9967 24.0987 42.6738 24.0987 42.2765C24.0987 41.7798 24.2979 41.3824 24.6713 41.1092C25.0448 40.8361 25.5925 40.7119 26.2895 40.7119H26.9368V40.4139C26.9368 40.1655 26.8621 39.9669 26.7377 39.8179C26.5883 39.6688 26.3891 39.5943 26.1153 39.5943C25.8663 39.5943 25.6672 39.644 25.5178 39.7682C25.3684 39.8924 25.2937 40.0414 25.2937 40.24H24.2232C24.2232 39.9917 24.2979 39.7434 24.4722 39.5198C24.6464 39.2963 24.8705 39.1225 25.1692 38.9983C25.468 38.8741 25.7916 38.7996 26.1651 38.7996C26.7128 38.7996 27.1609 38.9487 27.4845 39.2218C27.8082 39.495 27.9824 39.8924 27.9824 40.389V42.5248C27.9824 42.947 28.0322 43.2947 28.1567 43.543V43.6175H27.0862V43.5927ZM25.9161 42.8477C26.1153 42.8477 26.3144 42.798 26.5136 42.6987C26.6879 42.5993 26.8372 42.4503 26.9368 42.2765V41.3824H26.3642C25.9659 41.3824 25.6672 41.4569 25.468 41.5811C25.2688 41.7301 25.1692 41.9039 25.1692 42.1523C25.1692 42.351 25.2439 42.5248 25.3684 42.649C25.5178 42.7732 25.692 42.8477 25.9161 42.8477ZM29.9741 38.8741L29.999 39.3708C30.3226 38.9735 30.7956 38.7996 31.3682 38.7996C31.9906 38.7996 32.4387 39.048 32.6628 39.5198C33.0113 39.048 33.4843 38.7996 34.1067 38.7996C34.6295 38.7996 35.0278 38.9487 35.2768 39.2218C35.5257 39.5198 35.6751 39.942 35.6751 40.4884V43.5927H34.6046V40.5132C34.6046 40.2152 34.5299 39.9917 34.4054 39.8427C34.281 39.6937 34.0569 39.644 33.7582 39.644C33.5092 39.644 33.31 39.7185 33.1607 39.8427C33.0113 39.9669 32.9117 40.1407 32.837 40.3394V43.5927H31.7665V40.4884C31.7416 39.942 31.4678 39.644 30.9201 39.644C30.4969 39.644 30.1981 39.8179 30.0238 40.1655V43.5927H28.9533V38.8741H29.9741Z" fill="#4D4D4D"/>
</g>
<defs>
<linearGradient id="paint0_linear_7_142" x1="1.86599" y1="15.9322" x2="33.8085" y2="15.9322" gradientUnits="userSpaceOnUse">
<stop stop-color="#2AABEE"/>
<stop offset="1" stop-color="#229ED9"/>
</linearGradient>
<clipPath id="clip0_7_142">
<rect width="35.7" height="45" fill="white"/>
</clipPath>
</defs>
</svg>
